<svg xmlns="http://www.w3.org/2000/svg" width="1200" height="630" viewBox="0 0 1200 630" role="img" aria-labelledby="title desc">
  <title id="title">Convivium terminal guide visual</title>
  <desc id="desc">A terminal window showing guide commands and routes.</desc>
  <defs>
    <linearGradient id="bg" x1="0" y1="0" x2="1" y2="1">
      <stop offset="0" stop-color="#02140c"/>
      <stop offset="0.48" stop-color="#050711"/>
      <stop offset="1" stop-color="#130515"/>
    </linearGradient>
    <linearGradient id="line" x1="0" y1="0" x2="1" y2="0">
      <stop offset="0" stop-color="#00ff88"/>
      <stop offset="0.5" stop-color="#00e5ff"/>
      <stop offset="1" stop-color="#ff4fd8"/>
    </linearGradient>
  </defs>
  <rect width="1200" height="630" fill="url(#bg)"/>
  <g opacity="0.16" stroke="#00ff88" stroke-width="1">
    <path d="M0 90H1200M0 180H1200M0 270H1200M0 360H1200M0 450H1200M0 540H1200"/>
    <path d="M120 0V630M240 0V630M360 0V630M480 0V630M600 0V630M720 0V630M840 0V630M960 0V630M1080 0V630"/>
  </g>
  <rect x="96" y="78" width="1008" height="474" rx="18" fill="#020403" stroke="#00ff88" stroke-width="3"/>
  <rect x="96" y="78" width="1008" height="58" rx="18" fill="#07140f"/>
  <circle cx="130" cy="107" r="8" fill="#ff4f6f"/>
  <circle cx="158" cy="107" r="8" fill="#ffd166"/>
  <circle cx="186" cy="107" r="8" fill="#00ff88"/>
  <text x="222" y="116" fill="#8dffbd" font-family="Courier New, monospace" font-size="22">CONVIVIUM / TERMINAL GUIDE</text>
  <rect x="132" y="172" width="456" height="52" rx="8" fill="#06110e" stroke="#0ce6ff"/>
  <text x="158" y="206" fill="#00e5ff" font-family="Courier New, monospace" font-size="28">&gt; guide</text>
  <rect x="132" y="248" width="456" height="52" rx="8" fill="#06110e" stroke="#00ff88"/>
  <text x="158" y="282" fill="#00ff88" font-family="Courier New, monospace" font-size="28">&gt; how to play</text>
  <rect x="132" y="324" width="456" height="52" rx="8" fill="#06110e" stroke="#ff4fd8"/>
  <text x="158" y="358" fill="#ff8de8" font-family="Courier New, monospace" font-size="28">&gt; read guide</text>
  <g transform="translate(654 172)">
    <rect width="330" height="270" rx="14" fill="#07140f" stroke="#1bff99"/>
    <text x="26" y="48" fill="#dfffe8" font-family="Courier New, monospace" font-size="26">ROUTES</text>
    <path d="M52 92H278M52 146H278M52 200H278" stroke="url(#line)" stroke-width="5" stroke-linecap="round"/>
    <circle cx="52" cy="92" r="11" fill="#00ff88"/>
    <circle cx="166" cy="146" r="11" fill="#00e5ff"/>
    <circle cx="278" cy="200" r="11" fill="#ff4fd8"/>
    <text x="26" y="250" fill="#8dffbd" font-family="Courier New, monospace" font-size="18">short note - long read</text>
  </g>
  <rect x="132" y="472" width="936" height="28" fill="url(#line)" opacity="0.72"/>
</svg>
