<svg xmlns="http://www.w3.org/2000/svg" width="1200" height="630" viewBox="0 0 1200 630" role="img" aria-labelledby="title desc">
  <title id="title">Terminal games guide visual</title>
  <desc id="desc">Pipe puzzle and Out Run ASCII road shown inside terminal panels.</desc>
  <rect width="1200" height="630" fill="#030606"/>
  <text x="78" y="86" fill="#dfffe8" font-family="Courier New, monospace" font-size="38">SHELL GAMES / PIPE + OUTRUN</text>
  <g transform="translate(78 132)">
    <rect width="500" height="382" rx="16" fill="#06110e" stroke="#00ff88" stroke-width="3"/>
    <text x="28" y="48" fill="#00ff88" font-family="Courier New, monospace" font-size="26">&gt; pipe new</text>
    <g transform="translate(76 92)" stroke="#00e5ff" stroke-width="14" stroke-linecap="round" fill="none">
      <path d="M0 0H86V86H172"/>
      <path d="M172 86V172H258"/>
      <path d="M258 172H344V258"/>
    </g>
    <circle cx="76" cy="92" r="16" fill="#00ff88"/>
    <circle cx="420" cy="350" r="16" fill="#ff4fd8"/>
    <text x="28" y="338" fill="#8dffbd" font-family="Courier New, monospace" font-size="20">rotate - place - flow</text>
  </g>
  <g transform="translate(622 132)">
    <rect width="500" height="382" rx="16" fill="#080912" stroke="#ff4fd8" stroke-width="3"/>
    <text x="28" y="48" fill="#ff8de8" font-family="Courier New, monospace" font-size="26">&gt; outrun</text>
    <path d="M250 92L86 326H414z" fill="#121218" stroke="#00e5ff" stroke-width="4"/>
    <path d="M250 92L250 326" stroke="#ffd166" stroke-width="6" stroke-dasharray="24 22"/>
    <path d="M86 326H414" stroke="#00ff88" stroke-width="5"/>
    <path d="M138 210h42M320 210h42M102 276h58M340 276h58" stroke="#ff4fd8" stroke-width="6" stroke-linecap="round"/>
    <text x="28" y="350" fill="#8dffbd" font-family="Courier New, monospace" font-size="20">speed - lane - react early</text>
  </g>
</svg>
