<svg xmlns="http://www.w3.org/2000/svg" width="864" height="96" viewBox="0 0 864 96" shape-rendering="crispEdges">
<rect width="100%" height="100%" fill="none"/>
<g id="bugy-idle" transform="translate(0 0)"><rect x="20" y="76" width="54" height="8" fill="rgba(0,0,0,.42)" /><rect x="21" y="39" width="48" height="27" fill="#050505" /><rect x="24" y="36" width="42" height="28" fill="#00eaff" /><rect x="28" y="39" width="32" height="8" fill="#c9ffd6" /><rect x="30" y="50" width="20" height="5" fill="#00ff66" /><rect x="58" y="27" width="23" height="27" fill="#050505" /><rect x="61" y="24" width="20" height="27" fill="#c9ffd6" /><rect x="72" y="33" width="5" height="5" fill="#050505" /><rect x="76" y="13" width="10" height="13" fill="#050505" /><rect x="74" y="11" width="10" height="13" fill="#ff2ea6" /><rect x="15" y="47" width="13" height="13" fill="#050505" /><rect x="13" y="45" width="12" height="12" fill="#ff2ea6" /><rect x="31" y="48" width="8" height="25" fill="#050505" /><rect x="34" y="48" width="7" height="22" fill="#00ff66" /><rect x="52" y="48" width="8" height="25" fill="#050505" /><rect x="55" y="48" width="7" height="22" fill="#00ff66" /><rect x="38" y="29" width="9" height="8" fill="#c9ffd6" /><rect x="51" y="27" width="8" height="10" fill="#c9ffd6" /></g>
<g id="bugy-walk-a" transform="translate(96 0)"><rect x="20" y="76" width="54" height="8" fill="rgba(0,0,0,.42)" /><rect x="21" y="39" width="48" height="27" fill="#050505" /><rect x="24" y="36" width="42" height="28" fill="#00eaff" /><rect x="28" y="39" width="32" height="8" fill="#c9ffd6" /><rect x="30" y="50" width="20" height="5" fill="#00ff66" /><rect x="58" y="27" width="23" height="27" fill="#050505" /><rect x="61" y="24" width="20" height="27" fill="#c9ffd6" /><rect x="72" y="33" width="5" height="5" fill="#050505" /><rect x="76" y="13" width="10" height="13" fill="#050505" /><rect x="74" y="11" width="10" height="13" fill="#ff2ea6" /><rect x="15" y="47" width="13" height="13" fill="#050505" /><rect x="13" y="45" width="12" height="12" fill="#ff2ea6" /><rect x="31" y="45" width="8" height="25" fill="#050505" /><rect x="34" y="45" width="7" height="22" fill="#00ff66" /><rect x="52" y="50" width="8" height="25" fill="#050505" /><rect x="55" y="50" width="7" height="22" fill="#00ff66" /><rect x="38" y="29" width="9" height="8" fill="#c9ffd6" /><rect x="51" y="27" width="8" height="10" fill="#c9ffd6" /><rect x="23" y="31" width="8" height="4" fill="#f5ff6b" /></g>
<g id="bugy-walk-b" transform="translate(192 0)"><rect x="20" y="76" width="54" height="8" fill="rgba(0,0,0,.42)" /><rect x="21" y="39" width="48" height="27" fill="#050505" /><rect x="24" y="36" width="42" height="28" fill="#00eaff" /><rect x="28" y="39" width="32" height="8" fill="#c9ffd6" /><rect x="30" y="50" width="20" height="5" fill="#00ff66" /><rect x="58" y="27" width="23" height="27" fill="#050505" /><rect x="61" y="24" width="20" height="27" fill="#c9ffd6" /><rect x="72" y="33" width="5" height="5" fill="#050505" /><rect x="76" y="13" width="10" height="13" fill="#050505" /><rect x="74" y="11" width="10" height="13" fill="#ff2ea6" /><rect x="15" y="47" width="13" height="13" fill="#050505" /><rect x="13" y="45" width="12" height="12" fill="#ff2ea6" /><rect x="31" y="50" width="8" height="25" fill="#050505" /><rect x="34" y="50" width="7" height="22" fill="#00ff66" /><rect x="52" y="45" width="8" height="25" fill="#050505" /><rect x="55" y="45" width="7" height="22" fill="#00ff66" /><rect x="38" y="29" width="9" height="8" fill="#c9ffd6" /><rect x="51" y="27" width="8" height="10" fill="#c9ffd6" /><rect x="48" y="23" width="10" height="4" fill="#f5ff6b" /></g>
<g id="storm-cloud" transform="translate(288 0)"><rect x="16" y="62" width="64" height="8" fill="rgba(0,0,0,.42)" /><rect x="12" y="34" width="72" height="22" fill="#050505" /><rect x="18" y="28" width="18" height="18" fill="#050505" /><rect x="32" y="18" width="28" height="28" fill="#050505" /><rect x="58" y="28" width="20" height="20" fill="#050505" /><rect x="15" y="31" width="68" height="20" fill="#376f88" /><rect x="22" y="25" width="18" height="18" fill="#c9ffd6" /><rect x="36" y="14" width="27" height="27" fill="#c9ffd6" /><rect x="60" y="25" width="19" height="19" fill="#c9ffd6" /><rect x="19" y="47" width="58" height="8" fill="#12334a" /><rect x="23" y="57" width="8" height="25" fill="#00eaff" /><rect x="43" y="61" width="8" height="24" fill="#c9ffd6" /><rect x="63" y="57" width="8" height="25" fill="#00eaff" /><rect x="30" y="83" width="5" height="6" fill="#00eaff" /><rect x="51" y="86" width="5" height="6" fill="#c9ffd6" /><rect x="70" y="83" width="5" height="6" fill="#00eaff" /></g>
<g id="tornado" transform="translate(384 0)"><rect x="11" y="82" width="72" height="8" fill="rgba(0,0,0,.42)" /><polygon points="8,13 87,9 77,28 66,44 58,62 53,89 39,89 43,66 31,48 19,31" fill="#050505"/><polygon points="14,16 80,13 68,27 57,38 50,52 46,82 40,82 45,56 35,42 24,27" fill="#c9ffd6"/><polygon points="20,25 75,23 66,32 31,39 24,33" fill="#00eaff"/><polygon points="24,43 66,39 57,51 30,58 22,51" fill="#ff2ea6"/><polygon points="31,63 59,58 51,72 35,76 27,70" fill="#f5ff6b"/><rect x="9" y="30" width="7" height="7" fill="#f5ff6b" /><rect x="78" y="43" width="7" height="7" fill="#00eaff" /><rect x="18" y="65" width="6" height="6" fill="#c9ffd6" /></g>
<g id="portal" transform="translate(480 0)"><rect x="13" y="66" width="70" height="9" fill="rgba(0,0,0,.42)" /><polygon points="12,47 22,30 48,22 74,30 84,47 74,64 48,72 22,64" fill="#050505"/><polygon points="17,47 26,34 48,27 70,34 79,47 70,60 48,67 26,60" fill="#ff2ea6"/><polygon points="24,47 32,39 48,34 64,39 72,47 64,55 48,60 32,55" fill="#00eaff"/><polygon points="33,47 39,43 48,40 57,43 63,47 57,51 48,54 39,51" fill="#c9ffd6"/><rect x="11" y="28" width="7" height="7" fill="#f5ff6b" /><rect x="76" y="33" width="7" height="7" fill="#00eaff" /><rect x="21" y="68" width="6" height="6" fill="#c9ffd6" /><rect x="82" y="59" width="5" height="5" fill="#ff2ea6" /></g>
<g id="ufo" transform="translate(576 0)"><rect x="14" y="75" width="68" height="8" fill="rgba(0,0,0,.42)" /><rect x="34" y="13" width="30" height="16" fill="#050505" /><rect x="37" y="10" width="25" height="17" fill="#c9ffd6" /><rect x="16" y="30" width="68" height="22" fill="#050505" /><polygon points="14,41 24,28 74,28 84,41 74,54 24,54" fill="#00eaff"/><rect x="27" y="43" width="7" height="5" fill="#f5ff6b" /><rect x="45" y="45" width="7" height="5" fill="#ff2ea6" /><rect x="63" y="43" width="7" height="5" fill="#00ff66" /><polygon points="34,55 62,55 72,90 23,90" fill="rgba(0,234,255,.32)"/></g>
<g id="clone-echo" transform="translate(672 0)"><rect x="15" y="76" width="54" height="8" fill="rgba(0,0,0,.42)" /><rect x="14" y="39" width="35" height="27" fill="rgba(0,234,255,.42)" /><rect x="40" y="35" width="35" height="27" fill="rgba(255,46,166,.42)" /><rect x="26" y="30" width="42" height="36" fill="#050505" /><rect x="30" y="27" width="36" height="35" fill="#00eaff" /><rect x="39" y="38" width="23" height="7" fill="#c9ffd6" /><rect x="57" y="32" width="5" height="5" fill="#050505" /></g>
<g id="lightning" transform="translate(768 0)"><rect x="36" y="8" width="20" height="80" fill="#050505" /><polygon points="43,8 63,8 52,35 69,35 32,90 41,53 25,53 40,29" fill="#f5ff6b"/><rect x="48" y="12" width="8" height="13" fill="#f6fff8" /><rect x="41" y="56" width="7" height="14" fill="#f6fff8" /></g>
</svg>
